<svg xmlns="http://www.w3.org/2000/svg" xmlns:xlink="http://www.w3.org/1999/xlink" zoomAndPan="magnify" preserveAspectRatio="xMidYMid meet" version="1.0" viewBox="94.93 123.2 162.75 128.25"><defs><clipPath id="26cafc8098"><path d="M 94.929688 123.195312 L 257.679688 123.195312 L 257.679688 251.445312 L 94.929688 251.445312 Z M 94.929688 123.195312 " clip-rule="nonzero"/></clipPath><clipPath id="4692ef549e"><path d="M 200.386719 170.078125 C 202.894531 170.550781 205.355469 171.148438 207.769531 171.863281 C 207.683594 172.777344 207.917969 173.652344 208.378906 174.378906 C 208.355469 174.34375 208.335938 174.308594 208.3125 174.273438 C 208.308594 174.261719 208.300781 174.246094 208.292969 174.234375 C 208.023438 173.769531 207.859375 173.269531 207.789062 172.769531 C 207.785156 172.75 207.785156 172.734375 207.78125 172.714844 C 207.761719 172.554688 207.753906 172.398438 207.753906 172.238281 C 207.753906 170.863281 208.472656 169.519531 209.75 168.777344 C 210.378906 168.417969 211.066406 168.246094 211.742188 168.246094 C 213.125 168.246094 214.472656 168.964844 215.214844 170.246094 C 215.460938 170.675781 215.621094 171.132812 215.695312 171.59375 C 215.730469 171.804688 215.75 172.019531 215.75 172.230469 C 215.75 173.011719 215.519531 173.78125 215.089844 174.4375 C 217.792969 175.546875 220.421875 176.808594 222.953125 178.222656 C 222.710938 178.679688 222.4375 179.121094 222.140625 179.542969 C 222.148438 179.535156 222.152344 179.527344 222.160156 179.519531 C 224.925781 175.566406 225.300781 170.203125 222.703125 165.8125 C 221.164062 163.210938 218.859375 161.355469 216.238281 160.371094 C 216 160.289062 215.757812 160.21875 215.511719 160.15625 C 214.339844 159.808594 213.117188 159.628906 211.882812 159.628906 C 210.179688 159.628906 208.460938 159.972656 206.828125 160.683594 C 206.804688 160.695312 206.785156 160.703125 206.765625 160.710938 L 192.542969 152.511719 L 177.976562 160.910156 L 165.894531 153.945312 L 191.675781 139.074219 L 233.515625 163.191406 L 233.515625 178.363281 L 191.660156 202.511719 L 149.8125 178.375 C 149.808594 178.378906 149.808594 178.378906 149.808594 178.378906 L 120.320312 161.375 C 120.480469 158.898438 119.886719 156.4375 118.640625 154.285156 C 116.574219 150.71875 112.992188 148.429688 108.972656 148.003906 C 103.339844 147.40625 97.964844 150.636719 95.855469 155.890625 C 94.453125 159.378906 94.609375 163.457031 96.640625 166.96875 C 97.300781 168.109375 98.113281 169.113281 99.042969 169.964844 C 102.570312 173.203125 107.636719 174.179688 112.105469 172.5 L 136.066406 186.324219 L 136.066406 187.929688 L 136.074219 187.949219 L 136.074219 219.375 L 191.675781 251.445312 L 238.554688 224.417969 C 240.636719 225.628906 243.039062 226.222656 245.425781 226.132812 C 247.457031 226.058594 249.484375 225.5 251.320312 224.4375 C 257.394531 220.945312 259.484375 213.179688 255.96875 207.113281 C 252.792969 201.605469 246.101562 199.382812 240.34375 201.636719 C 235.96875 203.347656 232.847656 207.351562 232.335938 212.101562 L 191.65625 235.5625 L 156.242188 215.152344 C 156.242188 215.152344 156.25 215.152344 156.25 215.152344 L 149.816406 211.449219 L 149.816406 194.246094 L 184.796875 214.414062 L 191.683594 218.382812 L 239.644531 190.722656 L 247.257812 186.332031 L 247.257812 155.265625 C 235.28125 148.363281 223.308594 141.453125 211.332031 134.539062 C 211.328125 134.539062 211.328125 134.539062 211.324219 134.539062 C 204.769531 130.757812 198.210938 126.972656 191.65625 123.195312 L 152.113281 146 L 149.390625 144.425781 C 149.492188 142.019531 148.917969 139.636719 147.695312 137.523438 C 144.179688 131.449219 136.417969 129.382812 130.347656 132.882812 C 124.269531 136.386719 122.183594 144.136719 125.699219 150.210938 C 128.855469 155.671875 135.539062 157.972656 141.367188 155.667969 L 168.164062 171.113281 C 168.164062 171.117188 168.15625 171.117188 168.15625 171.117188 L 177.996094 176.78125 L 192.585938 168.382812 C 195.1875 169.878906 197.59375 171.527344 200.117188 173.109375 C 200.117188 173.070312 200.113281 173.03125 200.109375 172.992188 C 200.59375 179.339844 205.902344 184.339844 212.382812 184.339844 C 216.355469 184.339844 219.890625 182.460938 222.140625 179.542969 C 222.4375 179.121094 222.710938 178.679688 222.953125 178.222656 C 220.421875 176.808594 217.792969 175.546875 215.085938 174.4375 C 215.082031 174.445312 215.074219 174.457031 215.066406 174.46875 C 214.925781 174.679688 214.761719 174.875 214.578125 175.058594 C 214.578125 175.058594 214.578125 175.058594 214.578125 175.0625 C 214.433594 175.207031 214.273438 175.339844 214.105469 175.464844 C 214.105469 175.464844 214.105469 175.464844 214.101562 175.464844 C 213.910156 175.605469 213.703125 175.730469 213.484375 175.832031 C 213.152344 175.996094 212.796875 176.109375 212.425781 176.175781 C 212.421875 176.175781 212.414062 176.175781 212.40625 176.175781 C 212.296875 176.195312 212.183594 176.210938 212.074219 176.21875 C 212.070312 176.21875 212.070312 176.21875 212.070312 176.21875 C 211.964844 176.226562 211.859375 176.230469 211.753906 176.230469 C 211.6875 176.230469 211.621094 176.230469 211.554688 176.226562 C 210.964844 176.199219 210.414062 176.042969 209.925781 175.789062 C 209.289062 175.464844 208.757812 174.972656 208.378906 174.378906 C 207.917969 173.652344 207.683594 172.777344 207.769531 171.863281 C 205.359375 171.148438 202.894531 170.550781 200.386719 170.078125 Z M 111.1875 158.78125 C 111.429688 159.246094 111.570312 159.738281 111.617188 160.238281 C 111.761719 161.730469 111.058594 163.257812 109.632812 164.078125 C 108.808594 164.554688 107.886719 164.707031 107.011719 164.566406 C 106.625 164.507812 106.246094 164.386719 105.890625 164.214844 C 105.265625 163.910156 104.707031 163.4375 104.296875 162.8125 C 104.253906 162.75 104.214844 162.6875 104.179688 162.621094 C 103.074219 160.710938 103.730469 158.273438 105.640625 157.167969 C 106.269531 156.804688 106.957031 156.632812 107.632812 156.632812 C 108.085938 156.632812 108.53125 156.707031 108.953125 156.855469 C 109.773438 157.140625 110.5 157.6875 111 158.460938 C 111.066406 158.566406 111.128906 158.671875 111.1875 158.78125 Z M 140.683594 144.144531 C 140.640625 144.765625 140.453125 145.375 140.132812 145.910156 C 139.890625 146.320312 139.574219 146.679688 139.207031 146.976562 C 139.050781 147.105469 138.878906 147.222656 138.695312 147.332031 C 138.066406 147.691406 137.378906 147.863281 136.703125 147.863281 C 136.089844 147.863281 135.480469 147.71875 134.929688 147.449219 C 134.285156 147.128906 133.738281 146.644531 133.347656 146.046875 C 133.308594 145.988281 133.273438 145.925781 133.234375 145.863281 C 132.871094 145.234375 132.699219 144.542969 132.699219 143.867188 C 132.703125 143.167969 132.886719 142.484375 133.230469 141.878906 C 133.582031 141.269531 134.089844 140.757812 134.699219 140.40625 C 134.726562 140.394531 134.75 140.378906 134.777344 140.363281 C 135.871094 139.769531 137.125 139.734375 138.199219 140.167969 C 138.867188 140.441406 139.445312 140.886719 139.878906 141.453125 C 139.980469 141.585938 140.074219 141.726562 140.160156 141.875 C 140.484375 142.4375 140.65625 143.042969 140.6875 143.648438 C 140.691406 143.722656 140.695312 143.796875 140.695312 143.871094 C 140.695312 143.964844 140.691406 144.054688 140.683594 144.144531 Z M 242.628906 216.695312 C 240.460938 215.136719 240.410156 211.917969 242.546875 210.285156 C 244.382812 208.898438 246.960938 209.324219 248.253906 211.179688 C 249.507812 212.988281 249.058594 215.464844 247.269531 216.722656 C 245.878906 217.699219 244.011719 217.6875 242.628906 216.695312 Z M 200.074219 172.046875 C 200.074219 172.152344 200.074219 172.257812 200.078125 172.363281 C 200.074219 172.257812 200.074219 172.152344 200.074219 172.046875 Z M 200.078125 172.367188 C 200.082031 172.472656 200.085938 172.574219 200.089844 172.679688 C 200.085938 172.574219 200.082031 172.472656 200.078125 172.367188 Z M 200.089844 172.683594 C 200.09375 172.785156 200.101562 172.890625 200.109375 172.992188 C 200.101562 172.890625 200.09375 172.785156 200.089844 172.683594 Z M 200.089844 172.683594 " clip-rule="evenodd"/></clipPath><linearGradient x1="190.544029" gradientTransform="matrix(0.0179456, 0, 0, 0.0179223, 94.935122, 123.195067)" y1="-138.9243" x2="6738.126089" gradientUnits="userSpaceOnUse" y2="8852.957958" id="41f6953862"><stop stop-opacity="1" stop-color="rgb(58.799744%, 100%, 74.099731%)" offset="0"/><stop stop-opacity="1" stop-color="rgb(58.799744%, 100%, 74.099731%)" offset="0.125"/><stop stop-opacity="1" stop-color="rgb(58.799744%, 100%, 74.099731%)" offset="0.1875"/><stop stop-opacity="1" stop-color="rgb(58.799744%, 100%, 74.099731%)" offset="0.21875"/><stop stop-opacity="1" stop-color="rgb(58.496094%, 99.838257%, 74.200439%)" offset="0.222656"/><stop stop-opacity="1" stop-color="rgb(58.19397%, 99.676514%, 74.301147%)" offset="0.226562"/><stop stop-opacity="1" stop-color="rgb(57.788086%, 99.459839%, 74.435425%)" offset="0.230469"/><stop stop-opacity="1" stop-color="rgb(57.382202%, 99.243164%, 74.571228%)" offset="0.234375"/><stop stop-opacity="1" stop-color="rgb(56.976318%, 99.026489%, 74.705505%)" offset="0.238281"/><stop stop-opacity="1" stop-color="rgb(56.570435%, 98.809814%, 74.841309%)" offset="0.242188"/><stop stop-opacity="1" stop-color="rgb(56.164551%, 98.59314%, 74.977112%)" offset="0.246094"/><stop stop-opacity="1" stop-color="rgb(55.760193%, 98.376465%, 75.112915%)" offset="0.25"/><stop stop-opacity="1" stop-color="rgb(55.354309%, 98.15979%, 75.247192%)" offset="0.253906"/><stop stop-opacity="1" stop-color="rgb(54.948425%, 97.943115%, 75.382996%)" offset="0.257812"/><stop stop-opacity="1" stop-color="rgb(54.542542%, 97.72644%, 75.517273%)" offset="0.261719"/><stop stop-opacity="1" stop-color="rgb(54.136658%, 97.509766%, 75.653076%)" offset="0.265625"/><stop stop-opacity="1" stop-color="rgb(53.730774%, 97.293091%, 75.788879%)" offset="0.269531"/><stop stop-opacity="1" stop-color="rgb(53.32489%, 97.076416%, 75.924683%)" offset="0.273438"/><stop stop-opacity="1" stop-color="rgb(52.919006%, 96.859741%, 76.05896%)" offset="0.277344"/><stop stop-opacity="1" stop-color="rgb(52.513123%, 96.643066%, 76.194763%)" offset="0.28125"/><stop stop-opacity="1" stop-color="rgb(52.107239%, 96.426392%, 76.329041%)" offset="0.285156"/><stop stop-opacity="1" stop-color="rgb(51.701355%, 96.209717%, 76.464844%)" offset="0.289062"/><stop stop-opacity="1" stop-color="rgb(51.295471%, 95.993042%, 76.599121%)" offset="0.292969"/><stop stop-opacity="1" stop-color="rgb(50.889587%, 95.776367%, 76.734924%)" offset="0.296875"/><stop stop-opacity="1" stop-color="rgb(50.483704%, 95.559692%, 76.870728%)" offset="0.300781"/><stop stop-opacity="1" stop-color="rgb(50.07782%, 95.343018%, 77.006531%)" offset="0.304688"/><stop stop-opacity="1" stop-color="rgb(49.671936%, 95.124817%, 77.140808%)" offset="0.308594"/><stop stop-opacity="1" stop-color="rgb(49.267578%, 94.908142%, 77.276611%)" offset="0.3125"/><stop stop-opacity="1" stop-color="rgb(48.861694%, 94.691467%, 77.410889%)" offset="0.316406"/><stop stop-opacity="1" stop-color="rgb(48.455811%, 94.474792%, 77.546692%)" offset="0.320312"/><stop stop-opacity="1" stop-color="rgb(48.049927%, 94.258118%, 77.682495%)" offset="0.324219"/><stop stop-opacity="1" stop-color="rgb(47.644043%, 94.041443%, 77.818298%)" offset="0.328125"/><stop stop-opacity="1" stop-color="rgb(47.238159%, 93.824768%, 77.952576%)" offset="0.332031"/><stop stop-opacity="1" stop-color="rgb(46.832275%, 93.608093%, 78.088379%)" offset="0.335938"/><stop stop-opacity="1" stop-color="rgb(46.426392%, 93.391418%, 78.222656%)" offset="0.339844"/><stop stop-opacity="1" stop-color="rgb(46.020508%, 93.174744%, 78.358459%)" offset="0.34375"/><stop stop-opacity="1" stop-color="rgb(45.614624%, 92.958069%, 78.492737%)" offset="0.347656"/><stop stop-opacity="1" stop-color="rgb(45.20874%, 92.741394%, 78.62854%)" offset="0.351562"/><stop stop-opacity="1" stop-color="rgb(44.802856%, 92.524719%, 78.764343%)" offset="0.355469"/><stop stop-opacity="1" stop-color="rgb(44.396973%, 92.308044%, 78.900146%)" offset="0.359375"/><stop stop-opacity="1" stop-color="rgb(43.991089%, 92.09137%, 79.034424%)" offset="0.363281"/><stop stop-opacity="1" stop-color="rgb(43.586731%, 91.874695%, 79.170227%)" offset="0.367188"/><stop stop-opacity="1" stop-color="rgb(43.180847%, 91.65802%, 79.304504%)" offset="0.371094"/><stop stop-opacity="1" stop-color="rgb(42.774963%, 91.441345%, 79.440308%)" offset="0.375"/><stop stop-opacity="1" stop-color="rgb(42.36908%, 91.22467%, 79.576111%)" offset="0.378906"/><stop stop-opacity="1" stop-color="rgb(41.963196%, 91.007996%, 79.711914%)" offset="0.382812"/><stop stop-opacity="1" stop-color="rgb(41.557312%, 90.791321%, 79.846191%)" offset="0.386719"/><stop stop-opacity="1" stop-color="rgb(41.151428%, 90.574646%, 79.981995%)" offset="0.390625"/><stop stop-opacity="1" stop-color="rgb(40.745544%, 90.357971%, 80.116272%)" offset="0.394531"/><stop stop-opacity="1" stop-color="rgb(40.339661%, 90.141296%, 80.252075%)" offset="0.398438"/><stop stop-opacity="1" stop-color="rgb(39.933777%, 89.924622%, 80.386353%)" offset="0.402344"/><stop stop-opacity="1" stop-color="rgb(39.527893%, 89.707947%, 80.522156%)" offset="0.40625"/><stop stop-opacity="1" stop-color="rgb(39.122009%, 89.491272%, 80.657959%)" offset="0.410156"/><stop stop-opacity="1" stop-color="rgb(38.716125%, 89.274597%, 80.793762%)" offset="0.414062"/><stop stop-opacity="1" stop-color="rgb(38.310242%, 89.057922%, 80.92804%)" offset="0.417969"/><stop stop-opacity="1" stop-color="rgb(37.905884%, 88.841248%, 81.063843%)" offset="0.421875"/><stop stop-opacity="1" stop-color="rgb(37.5%, 88.624573%, 81.19812%)" offset="0.425781"/><stop stop-opacity="1" stop-color="rgb(37.094116%, 88.407898%, 81.333923%)" offset="0.429687"/><stop stop-opacity="1" stop-color="rgb(36.688232%, 88.191223%, 81.469727%)" offset="0.433594"/><stop stop-opacity="1" stop-color="rgb(36.282349%, 87.974548%, 81.60553%)" offset="0.4375"/><stop stop-opacity="1" stop-color="rgb(35.876465%, 87.757874%, 81.739807%)" offset="0.441406"/><stop stop-opacity="1" stop-color="rgb(35.470581%, 87.541199%, 81.87561%)" offset="0.445312"/><stop stop-opacity="1" stop-color="rgb(35.064697%, 87.324524%, 82.009888%)" offset="0.449219"/><stop stop-opacity="1" stop-color="rgb(34.658813%, 87.107849%, 82.145691%)" offset="0.453125"/><stop stop-opacity="1" stop-color="rgb(34.25293%, 86.891174%, 82.281494%)" offset="0.457031"/><stop stop-opacity="1" stop-color="rgb(33.847046%, 86.6745%, 82.417297%)" offset="0.460937"/><stop stop-opacity="1" stop-color="rgb(33.441162%, 86.457825%, 82.551575%)" offset="0.464844"/><stop stop-opacity="1" stop-color="rgb(33.035278%, 86.24115%, 82.687378%)" offset="0.46875"/><stop stop-opacity="1" stop-color="rgb(32.629395%, 86.024475%, 82.821655%)" offset="0.472656"/><stop stop-opacity="1" stop-color="rgb(32.223511%, 85.8078%, 82.957458%)" offset="0.476562"/><stop stop-opacity="1" stop-color="rgb(31.817627%, 85.591125%, 83.091736%)" offset="0.480469"/><stop stop-opacity="1" stop-color="rgb(31.413269%, 85.374451%, 83.227539%)" offset="0.484375"/><stop stop-opacity="1" stop-color="rgb(31.007385%, 85.157776%, 83.363342%)" offset="0.488281"/><stop stop-opacity="1" stop-color="rgb(30.601501%, 84.941101%, 83.499146%)" offset="0.492187"/><stop stop-opacity="1" stop-color="rgb(30.195618%, 84.724426%, 83.633423%)" offset="0.496094"/><stop stop-opacity="1" stop-color="rgb(29.789734%, 84.507751%, 83.769226%)" offset="0.5"/><stop stop-opacity="1" stop-color="rgb(29.38385%, 84.291077%, 83.903503%)" offset="0.503906"/><stop stop-opacity="1" stop-color="rgb(28.977966%, 84.074402%, 84.039307%)" offset="0.507812"/><stop stop-opacity="1" stop-color="rgb(28.572083%, 83.857727%, 84.17511%)" offset="0.511719"/><stop stop-opacity="1" stop-color="rgb(28.166199%, 83.641052%, 84.310913%)" offset="0.515625"/><stop stop-opacity="1" stop-color="rgb(27.760315%, 83.424377%, 84.44519%)" offset="0.519531"/><stop stop-opacity="1" stop-color="rgb(27.354431%, 83.207703%, 84.580994%)" offset="0.523438"/><stop stop-opacity="1" stop-color="rgb(26.948547%, 82.991028%, 84.715271%)" offset="0.527344"/><stop stop-opacity="1" stop-color="rgb(26.542664%, 82.774353%, 84.851074%)" offset="0.53125"/><stop stop-opacity="1" stop-color="rgb(26.13678%, 82.557678%, 84.985352%)" offset="0.535156"/><stop stop-opacity="1" stop-color="rgb(25.732422%, 82.341003%, 85.121155%)" offset="0.539062"/><stop stop-opacity="1" stop-color="rgb(25.326538%, 82.124329%, 85.256958%)" offset="0.542969"/><stop stop-opacity="1" stop-color="rgb(24.920654%, 81.907654%, 85.392761%)" offset="0.546875"/><stop stop-opacity="1" stop-color="rgb(24.514771%, 81.690979%, 85.527039%)" offset="0.550781"/><stop stop-opacity="1" stop-color="rgb(24.108887%, 81.474304%, 85.662842%)" offset="0.554688"/><stop stop-opacity="1" stop-color="rgb(23.703003%, 81.257629%, 85.797119%)" offset="0.558594"/><stop stop-opacity="1" stop-color="rgb(23.297119%, 81.040955%, 85.932922%)" offset="0.5625"/><stop stop-opacity="1" stop-color="rgb(22.891235%, 80.82428%, 86.068726%)" offset="0.566406"/><stop stop-opacity="1" stop-color="rgb(22.485352%, 80.607605%, 86.204529%)" offset="0.570312"/><stop stop-opacity="1" stop-color="rgb(22.079468%, 80.39093%, 86.338806%)" offset="0.574219"/><stop stop-opacity="1" stop-color="rgb(21.673584%, 80.174255%, 86.474609%)" offset="0.578125"/><stop stop-opacity="1" stop-color="rgb(21.2677%, 79.957581%, 86.608887%)" offset="0.582031"/><stop stop-opacity="1" stop-color="rgb(20.861816%, 79.740906%, 86.74469%)" offset="0.585938"/><stop stop-opacity="1" stop-color="rgb(20.455933%, 79.524231%, 86.878967%)" offset="0.589844"/><stop stop-opacity="1" stop-color="rgb(20.050049%, 79.307556%, 87.014771%)" offset="0.59375"/><stop stop-opacity="1" stop-color="rgb(19.644165%, 79.090881%, 87.150574%)" offset="0.597656"/><stop stop-opacity="1" stop-color="rgb(19.239807%, 78.874207%, 87.286377%)" offset="0.601562"/><stop stop-opacity="1" stop-color="rgb(18.833923%, 78.657532%, 87.420654%)" offset="0.605469"/><stop stop-opacity="1" stop-color="rgb(18.42804%, 78.440857%, 87.556458%)" offset="0.609375"/><stop stop-opacity="1" stop-color="rgb(18.022156%, 78.224182%, 87.690735%)" offset="0.613281"/><stop stop-opacity="1" stop-color="rgb(17.616272%, 78.007507%, 87.826538%)" offset="0.617188"/><stop stop-opacity="1" stop-color="rgb(17.210388%, 77.790833%, 87.962341%)" offset="0.621094"/><stop stop-opacity="1" stop-color="rgb(16.804504%, 77.574158%, 88.098145%)" offset="0.625"/><stop stop-opacity="1" stop-color="rgb(16.398621%, 77.357483%, 88.232422%)" offset="0.628906"/><stop stop-opacity="1" stop-color="rgb(15.992737%, 77.140808%, 88.368225%)" offset="0.632812"/><stop stop-opacity="1" stop-color="rgb(15.586853%, 76.924133%, 88.502502%)" offset="0.636719"/><stop stop-opacity="1" stop-color="rgb(15.180969%, 76.707458%, 88.638306%)" offset="0.640625"/><stop stop-opacity="1" stop-color="rgb(14.775085%, 76.490784%, 88.772583%)" offset="0.644531"/><stop stop-opacity="1" stop-color="rgb(14.369202%, 76.274109%, 88.908386%)" offset="0.648438"/><stop stop-opacity="1" stop-color="rgb(13.963318%, 76.055908%, 89.044189%)" offset="0.652344"/><stop stop-opacity="1" stop-color="rgb(13.55896%, 75.839233%, 89.179993%)" offset="0.65625"/><stop stop-opacity="1" stop-color="rgb(13.153076%, 75.622559%, 89.31427%)" offset="0.660156"/><stop stop-opacity="1" stop-color="rgb(12.747192%, 75.405884%, 89.450073%)" offset="0.664062"/><stop stop-opacity="1" stop-color="rgb(12.341309%, 75.189209%, 89.584351%)" offset="0.667969"/><stop stop-opacity="1" stop-color="rgb(11.935425%, 74.972534%, 89.720154%)" offset="0.671875"/><stop stop-opacity="1" stop-color="rgb(11.529541%, 74.755859%, 89.855957%)" offset="0.675781"/><stop stop-opacity="1" stop-color="rgb(11.123657%, 74.539185%, 89.99176%)" offset="0.679688"/><stop stop-opacity="1" stop-color="rgb(10.717773%, 74.32251%, 90.126038%)" offset="0.683594"/><stop stop-opacity="1" stop-color="rgb(10.31189%, 74.105835%, 90.261841%)" offset="0.6875"/><stop stop-opacity="1" stop-color="rgb(9.906006%, 73.88916%, 90.396118%)" offset="0.691406"/><stop stop-opacity="1" stop-color="rgb(9.500122%, 73.672485%, 90.531921%)" offset="0.695312"/><stop stop-opacity="1" stop-color="rgb(9.094238%, 73.455811%, 90.666199%)" offset="0.699219"/><stop stop-opacity="1" stop-color="rgb(8.688354%, 73.239136%, 90.802002%)" offset="0.703125"/><stop stop-opacity="1" stop-color="rgb(8.282471%, 73.022461%, 90.937805%)" offset="0.707031"/><stop stop-opacity="1" stop-color="rgb(7.878113%, 72.805786%, 91.073608%)" offset="0.710938"/><stop stop-opacity="1" stop-color="rgb(7.472229%, 72.589111%, 91.207886%)" offset="0.714844"/><stop stop-opacity="1" stop-color="rgb(7.066345%, 72.372437%, 91.343689%)" offset="0.71875"/><stop stop-opacity="1" stop-color="rgb(6.660461%, 72.155762%, 91.477966%)" offset="0.722656"/><stop stop-opacity="1" stop-color="rgb(6.254578%, 71.939087%, 91.61377%)" offset="0.726562"/><stop stop-opacity="1" stop-color="rgb(5.848694%, 71.722412%, 91.749573%)" offset="0.730469"/><stop stop-opacity="1" stop-color="rgb(5.44281%, 71.505737%, 91.885376%)" offset="0.734375"/><stop stop-opacity="1" stop-color="rgb(5.036926%, 71.289062%, 92.019653%)" offset="0.738281"/><stop stop-opacity="1" stop-color="rgb(4.631042%, 71.072388%, 92.155457%)" offset="0.742188"/><stop stop-opacity="1" stop-color="rgb(4.225159%, 70.855713%, 92.289734%)" offset="0.746094"/><stop stop-opacity="1" stop-color="rgb(3.819275%, 70.639038%, 92.425537%)" offset="0.75"/><stop stop-opacity="1" stop-color="rgb(3.413391%, 70.422363%, 92.559814%)" offset="0.753906"/><stop stop-opacity="1" stop-color="rgb(3.007507%, 70.205688%, 92.695618%)" offset="0.757812"/><stop stop-opacity="1" stop-color="rgb(2.601624%, 69.989014%, 92.831421%)" offset="0.761719"/><stop stop-opacity="1" stop-color="rgb(2.19574%, 69.772339%, 92.967224%)" offset="0.765625"/><stop stop-opacity="1" stop-color="rgb(1.789856%, 69.555664%, 93.101501%)" offset="0.769531"/><stop stop-opacity="1" stop-color="rgb(1.385498%, 69.338989%, 93.237305%)" offset="0.773438"/><stop stop-opacity="1" stop-color="rgb(0.979614%, 69.122314%, 93.371582%)" offset="0.777344"/><stop stop-opacity="1" stop-color="rgb(0.57373%, 68.90564%, 93.507385%)" offset="0.78125"/><stop stop-opacity="1" stop-color="rgb(0.286865%, 68.751526%, 93.603516%)" offset="0.785156"/><stop stop-opacity="1" stop-color="rgb(0%, 68.598938%, 93.699646%)" offset="0.789063"/><stop stop-opacity="1" stop-color="rgb(0%, 68.598938%, 93.699646%)" offset="0.796875"/><stop stop-opacity="1" stop-color="rgb(0%, 68.598938%, 93.699646%)" offset="0.8125"/><stop stop-opacity="1" stop-color="rgb(0%, 68.598938%, 93.699646%)" offset="0.875"/><stop stop-opacity="1" stop-color="rgb(0%, 68.598938%, 93.699646%)" offset="1"/></linearGradient></defs><rect x="-37.5" width="450" fill="none" y="-37.499999" height="449.999989" fill-opacity="1"/><rect x="-37.5" width="450" fill="none" y="-37.499999" height="449.999989" fill-opacity="1"/><g clip-path="url(#26cafc8098)"><g clip-path="url(#4692ef549e)"><path fill="url(#41f6953862)" d="M 94.929688 123.195312 L 94.929688 251.445312 L 257.679688 251.445312 L 257.679688 123.195312 Z M 94.929688 123.195312 " fill-rule="nonzero"/></g></g></svg>