<?xml version="1.0" standalone="no"?>
<!DOCTYPE svg PUBLIC "-//W3C//DTD SVG 20010904//EN"
 "http://www.w3.org/TR/2001/REC-SVG-20010904/DTD/svg10.dtd">
<svg version="1.0" xmlns="http://www.w3.org/2000/svg"
 width="652.000000pt" height="652.000000pt" viewBox="0 0 652.000000 652.000000"
 preserveAspectRatio="xMidYMid meet">
<metadata>
Created by potrace 1.14, written by Peter Selinger 2001-2017
</metadata>
<g transform="translate(0.000000,652.000000) scale(0.100000,-0.100000)"
fill="#000000" stroke="none">
<path d="M3850 5815 c-7 -8 -16 -15 -20 -15 -8 0 -329 -183 -537 -306 -50 -30
-96 -54 -102 -54 -6 0 -11 -4 -11 -10 0 -5 -4 -10 -10 -10 -5 0 -39 -18 -75
-40 -36 -22 -67 -40 -69 -40 -4 0 -184 -104 -226 -130 -8 -5 -51 -30 -95 -55
-44 -25 -98 -56 -120 -69 -158 -92 -290 -166 -297 -166 -4 0 -30 14 -58 31
-48 30 -50 32 -50 77 -1 202 -164 404 -377 466 -49 14 -200 16 -243 4 -64 -19
-107 -34 -115 -40 -5 -5 -35 -24 -65 -44 -128 -83 -215 -249 -214 -409 2 -245
161 -443 405 -501 49 -12 165 -10 214 3 77 21 79 22 99 4 10 -9 21 -15 25 -15
3 1 35 -15 71 -36 62 -36 371 -214 655 -378 72 -41 140 -81 152 -88 13 -8 26
-15 30 -15 5 0 15 -6 23 -12 8 -7 26 -18 40 -26 14 -8 79 -46 145 -84 178
-103 186 -108 235 -135 25 -13 49 -28 54 -33 8 -7 103 36 116 52 3 3 37 23 75
44 39 21 81 46 95 55 14 9 39 24 55 32 17 8 80 44 141 80 60 35 117 62 125 60
10 -4 252 -153 287 -178 2 -1 6 -17 9 -36 36 -228 229 -402 460 -415 282 -15
507 193 507 467 0 117 -8 153 -50 239 -41 83 -132 181 -205 220 -113 61 -280
75 -403 35 -45 -14 -60 -16 -64 -6 -2 6 -8 12 -13 12 -6 0 -110 58 -232 129
-278 161 -296 171 -306 171 -5 0 -80 -41 -168 -91 -87 -51 -174 -101 -193
-112 -19 -10 -71 -41 -116 -67 -100 -59 -117 -65 -134 -45 -7 8 -16 15 -21 15
-4 0 -91 48 -191 107 -101 58 -196 113 -211 121 -34 17 -28 25 45 65 47 26
107 62 143 85 11 6 27 15 35 19 8 4 59 33 113 65 54 32 100 58 102 58 3 0 125
71 155 90 8 6 24 14 35 20 11 5 38 21 60 35 22 14 49 29 60 35 11 5 54 29 95
54 41 24 94 55 117 67 l42 22 68 -40 c37 -23 85 -50 106 -62 75 -42 113 -64
142 -82 17 -11 42 -24 58 -30 15 -6 27 -15 27 -20 0 -5 5 -9 11 -9 6 0 64 -31
129 -70 65 -38 123 -70 129 -70 6 0 11 -4 11 -10 0 -5 4 -10 10 -10 8 0 107
-56 160 -90 8 -6 22 -13 30 -17 8 -4 48 -26 88 -50 40 -24 77 -43 82 -43 6 0
10 -4 10 -10 0 -5 5 -10 10 -10 6 0 27 -11 48 -23 39 -25 99 -59 192 -110 30
-16 62 -36 70 -43 9 -7 24 -17 36 -21 11 -4 72 -39 137 -76 102 -60 117 -72
118 -95 0 -15 1 -152 2 -304 l2 -276 -134 -79 c-149 -87 -202 -117 -276 -158
-27 -15 -58 -35 -69 -44 -10 -9 -20 -15 -22 -13 -4 3 -46 -21 -229 -128 -65
-39 -339 -197 -515 -298 -232 -133 -405 -234 -416 -243 -12 -10 -128 52 -405
216 -10 6 -30 17 -46 26 -122 68 -369 213 -395 231 -16 11 -28 16 -28 12 0 -4
-8 0 -17 8 -16 13 -408 241 -536 311 -29 16 -63 36 -77 45 -14 9 -34 22 -45
28 -41 22 -114 63 -230 131 -66 39 -140 81 -165 95 -25 14 -112 65 -195 113
-82 48 -179 103 -215 122 -36 20 -72 42 -81 49 -8 8 -18 14 -22 14 -3 0 -71
38 -151 85 -80 47 -150 85 -156 85 -5 0 -10 3 -10 8 0 4 -18 16 -40 26 -55 26
-59 34 -65 110 -20 248 -225 448 -473 461 -98 5 -172 -10 -258 -51 -134 -66
-230 -185 -269 -336 -13 -46 -14 -185 -2 -228 17 -65 32 -107 44 -121 7 -8 13
-20 13 -25 0 -20 79 -107 135 -150 41 -32 121 -73 152 -79 10 -2 18 -4 18 -5
0 -18 233 -17 276 2 33 14 37 14 60 -3 13 -10 27 -19 32 -19 4 0 24 -11 45
-23 20 -13 69 -41 107 -62 39 -21 77 -44 86 -51 8 -8 18 -14 21 -14 4 0 44
-22 91 -50 47 -28 90 -50 96 -50 6 0 11 -4 11 -10 0 -5 5 -10 11 -10 6 0 23
-8 37 -18 15 -11 52 -33 82 -49 30 -17 114 -64 185 -105 l130 -76 2 -593 c1
-327 2 -626 3 -664 l0 -71 103 -59 c368 -212 455 -262 477 -276 22 -14 74 -43
227 -130 66 -37 99 -57 151 -88 29 -17 57 -31 62 -31 6 0 10 -4 10 -10 0 -5 5
-10 11 -10 6 0 49 -23 97 -51 48 -29 107 -63 132 -77 25 -14 57 -32 72 -41 45
-27 151 -88 203 -116 28 -15 57 -33 65 -39 8 -6 24 -16 35 -22 11 -6 147 -84
303 -173 203 -118 286 -160 295 -153 6 6 39 25 72 43 33 18 62 35 65 38 3 3
23 16 45 28 22 11 54 29 72 40 154 89 198 113 205 113 4 0 8 5 8 10 0 6 6 10
14 10 8 0 22 7 30 16 9 8 16 13 16 9 0 -3 12 2 28 13 15 11 43 28 62 38 31 17
401 231 440 255 8 5 69 40 135 77 66 38 243 140 393 226 l273 157 65 -26 c145
-58 299 -51 431 20 87 48 131 86 182 160 29 41 74 135 65 135 -3 0 1 10 7 22
7 13 14 65 15 115 3 107 -15 180 -66 269 -32 58 -116 148 -160 173 -185 107
-370 109 -545 6 -104 -60 -214 -213 -231 -320 -8 -54 -16 -65 -60 -89 -87 -47
-319 -180 -324 -186 -3 -3 -21 -14 -40 -23 -19 -10 -48 -26 -65 -36 -29 -17
-322 -187 -395 -228 -19 -11 -90 -52 -157 -92 -68 -39 -127 -71 -132 -71 -5 0
-11 -4 -13 -8 -1 -4 -32 -24 -68 -44 -36 -19 -121 -68 -190 -109 -69 -40 -141
-81 -160 -92 l-35 -19 -65 38 c-36 20 -80 44 -97 53 -18 8 -33 19 -33 23 0 4
-5 8 -10 8 -6 0 -65 32 -133 71 -67 40 -147 85 -177 102 -30 17 -56 34 -58 39
-2 4 -9 8 -16 8 -8 0 -25 9 -40 21 -14 11 -26 17 -26 13 0 -4 -8 -1 -17 7 -10
8 -29 20 -43 28 -14 8 -79 46 -145 84 -66 39 -135 79 -155 90 -32 18 -326 187
-360 207 -8 5 -51 30 -95 55 -44 25 -87 50 -95 55 -8 5 -34 19 -58 32 -24 12
-46 26 -49 31 -5 8 -6 677 -1 682 3 3 409 -228 458 -260 8 -5 17 -10 20 -10 3
0 16 -8 30 -17 36 -23 544 -316 610 -351 30 -16 57 -33 58 -38 2 -5 8 -9 14
-9 5 0 63 -32 129 -70 66 -39 124 -70 130 -70 5 0 9 -4 9 -10 0 -5 6 -10 14
-10 7 0 19 -7 26 -15 7 -8 16 -13 20 -10 5 3 10 2 12 -2 3 -8 57 -41 114 -70
32 -16 33 -15 125 37 52 29 119 68 149 86 97 57 414 240 430 247 8 4 29 15 45
26 17 10 104 61 195 113 91 52 189 109 218 127 29 17 57 31 62 31 6 0 10 4 10
9 0 5 8 11 18 14 17 6 80 41 182 102 154 91 391 225 400 225 5 0 10 3 10 8 0
4 21 18 48 31 26 14 58 32 72 42 14 9 45 28 70 41 148 83 211 121 217 130 4 8
8 1171 4 1235 -1 10 -35 31 -161 101 -25 13 -52 30 -60 36 -8 7 -40 25 -70 41
-30 15 -66 36 -80 45 -14 9 -47 30 -75 45 -74 41 -376 215 -405 233 -14 9 -27
17 -30 17 -3 0 -36 19 -75 42 -149 87 -367 213 -370 213 -2 0 -32 17 -66 38
-35 22 -84 50 -109 64 -25 14 -144 83 -265 153 -121 70 -238 138 -260 150 -22
13 -76 44 -120 69 -44 25 -83 46 -86 46 -4 0 -12 -7 -19 -15z m-2105 -673 c37
-19 48 -30 70 -72 55 -105 -31 -232 -151 -225 -113 7 -179 116 -133 221 34 80
134 116 214 76z m-1140 -686 c63 -48 81 -126 45 -196 -82 -161 -325 -82 -297
97 6 41 19 63 55 95 52 46 139 48 197 4z m4125 -441 c55 -12 110 -89 110 -153
0 -43 -35 -104 -74 -131 -58 -38 -149 -29 -198 20 -69 69 -52 209 29 249 56
28 67 29 133 15z m1369 -1671 c37 -22 71 -82 71 -127 0 -170 -227 -225 -302
-72 -13 25 -16 66 -9 122 3 29 65 84 110 97 49 14 80 9 130 -20z"/>
</g>
</svg>
